<svg width="451" height="194" viewBox="0 0 451 194" fill="none" xmlns="http://www.w3.org/2000/svg">
<path d="M38.2275 157.711L37.5838 156.946H37.5838L38.2275 157.711ZM105.307 110.352L105.789 111.228L105.307 110.352ZM169.196 156.904L168.197 156.954L169.196 156.904ZM198.597 100.523L199.233 101.295L198.597 100.523ZM224.113 75.3594L224.211 76.3547L224.113 75.3594ZM297.253 133.641L298.089 134.191L297.253 133.641ZM445.731 8.23641C446.274 8.13978 446.637 7.62064 446.54 7.07687C446.444 6.53311 445.925 6.17063 445.381 6.26726L445.731 8.23641ZM433.817 18.6242C433.394 18.9798 433.34 19.6107 433.696 20.0332C434.051 20.4558 434.682 20.51 435.105 20.1544L433.817 18.6242ZM448.43 7.63171L449.074 8.39679L450.244 7.4118L448.872 6.73494L448.43 7.63171ZM430.099 0.0279005C429.562 -0.101648 429.022 0.228555 428.892 0.765431C428.763 1.30231 429.093 1.84255 429.63 1.9721L430.099 0.0279005ZM-0.713423 191.495L-1.41416 192.208L0.0126886 193.61L0.713423 192.896L-0.713423 191.495ZM38.8712 158.477C59.6899 140.965 81.9481 124.311 105.789 111.228L104.826 109.475C80.826 122.646 58.4553 139.39 37.5838 156.946L38.8712 158.477ZM170.195 156.855C169.151 135.775 183.652 114.12 199.233 101.295L197.961 99.7505C182.137 112.776 167.109 134.981 168.197 156.954L170.195 156.855ZM224.211 76.3547C229.217 75.8652 234.364 75.337 239.558 74.8444L239.369 72.8533C234.174 73.346 229.007 73.8762 224.016 74.3642L224.211 76.3547ZM239.558 74.8444C251.765 73.6867 264.137 72.7359 275.163 72.9801C286.216 73.2249 295.775 74.6707 302.437 78.206C305.75 79.964 308.315 82.2226 310.008 85.0824C311.699 87.9389 312.561 91.465 312.355 95.8291C311.941 104.607 307.213 116.675 296.418 133.092L298.089 134.191C308.938 117.693 313.913 105.252 314.353 95.9233C314.574 91.2343 313.65 87.3083 311.729 84.0637C309.811 80.8223 306.939 78.3307 303.375 76.4394C296.283 72.6761 286.331 71.227 275.207 70.9806C264.055 70.7336 251.582 71.6951 239.369 72.8533L239.558 74.8444ZM296.418 133.092C291.95 139.886 281.989 148.65 269.396 157.015C256.832 165.36 241.764 173.232 227.189 178.283C212.576 183.347 198.623 185.519 188.202 182.666C183.021 181.248 178.734 178.594 175.64 174.445C172.54 170.287 170.576 164.547 170.195 156.855L168.197 156.954C168.593 164.931 170.64 171.086 174.037 175.64C177.439 180.203 182.135 183.078 187.673 184.595C198.691 187.611 213.121 185.275 227.844 180.173C242.604 175.057 257.823 167.103 270.502 158.681C283.153 150.278 293.393 141.332 298.089 134.191L296.418 133.092ZM199.233 101.295C210.899 91.6909 224.78 82.8377 239.935 74.7306L238.992 72.9671C223.757 81.1168 209.758 90.0403 197.961 99.7505L199.233 101.295ZM239.935 74.7306C281.789 52.342 333.226 35.7162 374.235 24.6844C394.732 19.1704 412.61 15.0576 425.363 12.3236C431.739 10.9566 436.833 9.93436 440.333 9.25409C442.082 8.91396 443.433 8.65933 444.346 8.48983C444.802 8.40508 445.149 8.34162 445.381 8.2994C445.498 8.27829 445.585 8.26248 445.644 8.25199C445.673 8.24674 445.695 8.24282 445.709 8.24022C445.717 8.23892 445.722 8.23796 445.726 8.23732C445.727 8.23701 445.729 8.23678 445.73 8.23662C445.73 8.23647 445.731 8.23641 445.556 7.25184C445.381 6.26726 445.38 6.26736 445.379 6.26755C445.378 6.26772 445.377 6.26799 445.375 6.26834C445.371 6.26903 445.365 6.27005 445.358 6.2714C445.342 6.27411 445.32 6.27814 445.29 6.2835C445.23 6.29422 445.142 6.31025 445.024 6.33159C444.789 6.37427 444.44 6.43821 443.98 6.52345C443.062 6.69392 441.706 6.9496 439.951 7.29085C436.44 7.97333 431.333 8.99809 424.944 10.368C412.165 13.1077 394.252 17.2284 373.715 22.7531C332.655 33.7987 281.046 50.4714 238.992 72.9671L239.935 74.7306ZM105.789 111.228C140.651 92.0971 184.657 80.2214 224.211 76.3547L224.016 74.3642C184.249 78.2518 139.97 90.1893 104.826 109.475L105.789 111.228ZM435.105 20.1544L449.074 8.39679L447.786 6.86664L433.817 18.6242L435.105 20.1544ZM448.872 6.73494C442.392 3.53751 438.327 2.01324 430.099 0.0279005L429.63 1.9721C437.718 3.92381 441.644 5.39845 447.987 8.52848L448.872 6.73494ZM0.713423 192.896C12.6617 180.732 25.7001 169.555 38.8712 158.477L37.5838 156.946C24.4115 168.026 11.308 179.256 -0.713423 191.495L0.713423 192.896Z" fill="black"/>
</svg>
