<svg width="1162" height="15" viewBox="0 0 1162 15" fill="none" xmlns="http://www.w3.org/2000/svg">
<path d="M1 10.0982C26.9457 10.0982 52.8913 10.0982 78.837 10.0982C144.939 10.0982 207.896 10.9499 273.15 9.88088C302.235 9.4044 331.352 9.10317 360.5 8.92499C533.707 7.8662 708.004 11.1523 883.004 7.82815C905.15 7.40748 934.149 9.69339 956 8.40972C978.5 8.40994 978 -2.74565 986 2.31863C994 7.38291 1001.5 18.5534 1005 8.40972C1008.5 -1.73397 1015 -0.212511 1019 9.91766C1023 20.0478 1033.5 8.09582 1053 8.41062C1095.16 9.09131 1118.83 9.88085 1161 9.88085" stroke="black" stroke-width="2" stroke-linecap="round"/>
</svg>
