<svg width="137" height="32" viewBox="0 0 137 32" fill="none" xmlns="http://www.w3.org/2000/svg">
<path d="M133.46 6.11294C134.267 6.34149 134.267 7.48493 133.46 7.71348L132.306 8.04064C131.345 8.31283 130.589 9.05582 130.301 10.0118L129.945 11.1887C129.707 11.9772 128.591 11.9772 128.353 11.1887L127.997 10.0118C127.709 9.05582 126.953 8.31282 125.992 8.04064L124.837 7.71348C124.031 7.48493 124.031 6.34149 124.837 6.11294L125.992 5.78578C126.953 5.5136 127.709 4.77061 127.997 3.81467L128.353 2.63772C128.591 1.8492 129.707 1.8492 129.945 2.63771L130.301 3.81467C130.589 4.7706 131.345 5.5136 132.306 5.78578L133.46 6.11294Z" fill="#1F5DFE"/>
<path d="M14.242 6.6558C13.4004 6.22422 12.5049 5.85738 11.5554 5.55528C10.6275 5.2316 9.72123 5.06976 8.8365 5.06976C7.67125 5.06976 6.74336 5.3287 6.05284 5.84659C5.3839 6.34291 5.04943 7.055 5.04943 7.98289C5.04943 8.63025 5.2868 9.20209 5.76153 9.6984C6.23626 10.1731 6.84047 10.5939 7.57414 10.9608C8.30782 11.3276 9.08466 11.6621 9.90465 11.9642C10.8541 12.3094 11.7712 12.741 12.6559 13.2589C13.5622 13.7768 14.3067 14.4889 14.8893 15.3952C15.472 16.2799 15.7633 17.4668 15.7633 18.9557C15.7633 20.1857 15.4504 21.3186 14.8246 22.3543C14.1988 23.3685 13.3033 24.1777 12.1381 24.782C10.9728 25.3862 9.55939 25.6883 7.89782 25.6883C6.43047 25.6883 5.00627 25.4617 3.62523 25.0085C2.26577 24.5338 1.05736 23.9296 0 23.1959L1.68314 20.2504C2.45998 20.833 3.38786 21.3294 4.4668 21.7393C5.56732 22.1493 6.59231 22.3543 7.54177 22.3543C8.21072 22.3543 8.86887 22.2464 9.51623 22.0307C10.1852 21.8149 10.7354 21.4588 11.167 20.9625C11.6202 20.4662 11.8467 19.808 11.8467 18.9881C11.8467 18.3191 11.6525 17.7473 11.2641 17.2725C10.8757 16.7978 10.3686 16.3878 9.74281 16.0426C9.1386 15.6757 8.46966 15.352 7.73598 15.0715C7.00231 14.791 6.24705 14.4781 5.47021 14.1328C4.71496 13.7876 4.01365 13.3668 3.36629 12.8705C2.71892 12.3526 2.19024 11.7268 1.78025 10.9931C1.37025 10.2594 1.16525 9.35314 1.16525 8.2742C1.16525 6.97948 1.46736 5.85738 2.07156 4.90792C2.67577 3.93687 3.50655 3.18162 4.56391 2.64215C5.64284 2.10268 6.88362 1.80058 8.28624 1.73584C9.94781 1.73584 11.3612 1.94084 12.5265 2.35083C13.7133 2.73925 14.7599 3.21398 15.6662 3.77503L14.242 6.6558Z" fill="#000719"/>
<path d="M21.2992 5.71712H24.9245V11.7376H28.485V14.586H24.9245V25.4293H21.2992V14.586H20.6437V14.5891H17.3793L18.383 11.7399H18.9364V11.7376H21.2992V5.71712Z" fill="#000719"/>
<path fill-rule="evenodd" clip-rule="evenodd" d="M34.3127 24.9762C35.3485 25.5156 36.5138 25.7854 37.8085 25.7854C38.6501 25.7854 39.3945 25.6451 40.0419 25.3646C40.7108 25.0841 41.2719 24.7604 41.7251 24.3935C42.1782 24.0267 42.5235 23.703 42.7608 23.4225V25.4293H46.3861V11.7376H43.0521L42.7932 13.5826C42.3185 12.9136 41.6819 12.3418 40.8835 11.8671C40.1066 11.3708 39.0817 11.1226 37.8085 11.1226C36.5785 11.1226 35.4348 11.4247 34.3775 12.0289C33.3417 12.6331 32.5001 13.4963 31.8528 14.6184C31.227 15.7189 30.9141 17.046 30.9141 18.5996C30.9141 20.1965 31.2162 21.5236 31.8204 22.5809C32.4462 23.6383 33.277 24.4367 34.3127 24.9762ZM41.3043 22.0307C40.6137 22.5486 39.783 22.8075 38.8119 22.8075C38.0351 22.8075 37.323 22.6133 36.6756 22.2249C36.0498 21.8365 35.5427 21.3078 35.1543 20.6388C34.7659 19.9699 34.5717 19.2254 34.5717 18.4054C34.5717 17.5639 34.7551 16.8194 35.122 16.172C35.5104 15.5031 36.0067 14.996 36.6109 14.6507C37.2367 14.2839 37.9272 14.1005 38.6824 14.1005C39.6751 14.1005 40.5382 14.3594 41.2719 14.8773C42.0056 15.3952 42.5019 16.0749 42.7608 16.9165V19.8944C42.4803 20.8007 41.9948 21.5128 41.3043 22.0307Z" fill="#000719"/>
<path d="M54.6612 11.7376L54.9201 14.9097C55.3085 14.1328 55.8372 13.4639 56.5062 12.9028C57.1751 12.3202 57.8548 11.8779 58.5454 11.5758C59.2575 11.2737 59.8401 11.1226 60.2932 11.1226L60.1314 14.7478C59.0956 14.6615 58.1893 14.8449 57.4125 15.2981C56.6572 15.7512 56.0638 16.3662 55.6322 17.1431C55.2222 17.8983 55.0172 18.6967 55.0172 19.5383V25.4293H51.392V15.5626H49.054L50.4405 11.7399H51.392V11.7376H54.6612Z" fill="#000719"/>
<path d="M67.5323 14.1652L67.2734 11.7376H64.0042V11.7399H63.0711L61.6846 15.5626H64.0042V25.4293H67.6294V19.2794C67.6294 18.4378 67.7805 17.6394 68.0826 16.8841C68.3847 16.1073 68.8162 15.4815 69.3773 15.0068C69.9383 14.5105 70.5965 14.2623 71.3518 14.2623C72.0639 14.3055 72.5602 14.5536 72.8407 15.0068C73.1212 15.4384 73.2723 15.9778 73.2938 16.6252V25.4293H76.9514V19.2794C76.9514 18.4378 77.1025 17.6394 77.4046 16.8841C77.7283 16.1073 78.1706 15.4815 78.7317 15.0068C79.2927 14.5105 79.9617 14.2623 80.7385 14.2623C81.429 14.3055 81.9038 14.5536 82.1627 15.0068C82.4217 15.4384 82.5727 15.9778 82.6159 16.6252V25.4293H86.2087V15.2334C86.1871 14.0249 85.7772 13.0431 84.9787 12.2879C84.2019 11.511 83.1338 11.1226 81.7743 11.1226C80.8248 11.1226 79.9185 11.3815 79.0554 11.8994C78.2138 12.3957 77.5017 13.0755 76.9191 13.9386C76.7464 13.0539 76.2825 12.3634 75.5272 11.8671C74.772 11.3708 73.8333 11.1226 72.7112 11.1226C71.546 11.1226 70.521 11.3923 69.6362 11.9318C68.7515 12.4713 68.0502 13.2157 67.5323 14.1652Z" fill="#000719"/>
<path fill-rule="evenodd" clip-rule="evenodd" d="M96.9499 25.7854C95.6552 25.7854 94.4899 25.5156 93.4541 24.9762C92.4184 24.4367 91.5876 23.6383 90.9618 22.5809C90.3576 21.5236 90.0555 20.1965 90.0555 18.5996C90.0555 17.046 90.3684 15.7189 90.9941 14.6184C91.6415 13.4963 92.4831 12.6331 93.5189 12.0289C94.5762 11.4247 95.7199 11.1226 96.9499 11.1226C98.223 11.1226 99.248 11.3708 100.025 11.8671C100.823 12.3418 101.46 12.9136 101.935 13.5826L102.194 11.7376H105.527V25.4293H101.902V23.4225C101.665 23.703 101.32 24.0267 100.866 24.3935C100.413 24.7604 99.8522 25.0841 99.1833 25.3646C98.5359 25.6451 97.7915 25.7854 96.9499 25.7854ZM97.9533 22.8075C98.9243 22.8075 99.7551 22.5486 100.446 22.0307C101.136 21.5128 101.622 20.8007 101.902 19.8944V16.9165C101.643 16.0749 101.147 15.3952 100.413 14.8773C99.6796 14.3594 98.8165 14.1005 97.8238 14.1005C97.0686 14.1005 96.3781 14.2839 95.7523 14.6507C95.1481 14.996 94.6518 15.5031 94.2633 16.172C93.8965 16.8194 93.7131 17.5639 93.7131 18.4054C93.7131 19.2254 93.9073 19.9699 94.2957 20.6388C94.6841 21.3078 95.1912 21.8365 95.817 22.2249C96.4644 22.6133 97.1765 22.8075 97.9533 22.8075Z" fill="#000719"/>
<path fill-rule="evenodd" clip-rule="evenodd" d="M116.198 25.2351C117.061 25.6019 117.946 25.7854 118.852 25.7854C120.276 25.7854 121.549 25.494 122.671 24.9114C123.794 24.3288 124.678 23.498 125.326 22.4191C125.973 21.3401 126.297 20.0454 126.297 18.5349C126.297 17.1267 126.034 15.8967 125.509 14.8449V14.8613H123.057V12.0663C123.037 12.0538 123.016 12.0413 122.995 12.0289C121.981 11.4247 120.826 11.1226 119.532 11.1226C118.366 11.1226 117.32 11.3492 116.392 11.8023C115.464 12.2555 114.666 12.8273 113.997 13.5178L113.673 11.4786H111.962V11.4734H109.701L108.697 14.3225H110.533V32H114.159V23.6814C114.676 24.3504 115.356 24.8683 116.198 25.2351ZM119.121 14.8612L123.057 14.8613L123.057 18.8194C123.057 21.0054 121.285 22.7775 119.099 22.7775C116.913 22.7775 115.141 21.0054 115.141 18.8194C115.141 16.6334 116.913 14.8613 119.099 14.8613L119.121 14.8612Z" fill="#000719"/>
</svg>
