<svg width="11" height="11" viewBox="0 0 11 11" fill="none" xmlns="http://www.w3.org/2000/svg">
<path d="M9.6069 4.69985C10.4136 4.9284 10.4136 6.07185 9.6069 6.3004L8.45213 6.62755C7.49139 6.89974 6.73558 7.64273 6.447 8.59867L6.0917 9.77562C5.85366 10.5641 4.73718 10.5641 4.49915 9.77562L4.14385 8.59867C3.85527 7.64273 3.09945 6.89974 2.13872 6.62755L0.983945 6.3004C0.177218 6.07184 0.177218 4.9284 0.983945 4.69985L2.13872 4.37269C3.09945 4.10051 3.85527 3.35752 4.14385 2.40158L4.49915 1.22463C4.73718 0.436113 5.85366 0.436112 6.0917 1.22463L6.447 2.40158C6.73558 3.35752 7.49139 4.10051 8.45213 4.37269L9.6069 4.69985Z" fill="#1F5DFE"/>
</svg>
