<svg width="808" height="494" viewBox="0 0 808 494" fill="none" xmlns="http://www.w3.org/2000/svg">
<path d="M68.7976 403.904C65.6344 402.358 58.9202 402.308 55.5875 403.499C55.2587 403.616 54.7382 403.763 54.4582 403.983C54.2791 404.124 56.0559 407.132 56.2857 407.662C57.3803 410.186 59.4909 414.442 59.5058 417.442" stroke="black" stroke-width="2" stroke-linecap="round"/>
<path d="M56.5 405C173 453.5 248.214 445.37 266.601 441.898C325.272 430.816 375.13 413.014 416.217 371.578C443.584 343.977 431.03 310.796 405.327 283.69C377.032 253.852 341.38 232.5 299.907 243.612C270.19 251.575 249.96 268.331 237.886 297.204C228.576 319.466 243.957 348.537 261.741 361.76C286.959 380.511 325.119 375.326 347.808 361.76C379.302 342.929 396.806 288.01 430.308 272.953C464.165 257.737 535.355 313.955 591.308 254.455C647.262 194.955 562.308 143.955 591.308 72.9547C604.308 34.2879 653.608 -19.8455 746.808 72.9547" stroke="black" stroke-width="2" stroke-linecap="round"/>
</svg>
