<svg width="351" height="505" viewBox="0 0 351 505" fill="none" xmlns="http://www.w3.org/2000/svg">
<path d="M67.6968 351.02C67.2954 356.817 61.825 366.457 57.3719 370.239C56.9325 370.612 56.294 371.236 55.7477 371.454C55.3984 371.594 52.5648 366.571 51.9969 365.805C49.2918 362.157 44.9487 355.626 40.6722 353.128" stroke="black" stroke-width="2" stroke-linecap="round"/>
<path d="M55.8661 370.423C64.5336 303.666 88.3509 271.087 94.8595 263.519C115.628 239.369 137.151 221.084 167.253 213.155C187.303 207.873 199.284 222.524 204.95 241.628C211.188 262.658 211.543 284.824 195.348 301.019C183.743 312.624 170.606 317.501 154.046 315.378C141.279 313.741 131.951 298.881 130.586 287.139C128.649 270.487 141.223 254.241 153.542 247.377C170.642 237.85 200.682 244.412 216.574 232.95C232.634 221.368 225.651 173.485 268.063 163.505C310.475 153.526 311.377 206.376 351.913 211.916C373.244 216.224 411.402 207.887 393.389 140.078" stroke="black" stroke-width="2" stroke-linecap="round"/>
</svg>
